<svg width="515" height="148" viewBox="0 0 515 148" fill="none" xmlns="http://www.w3.org/2000/svg">
<path d="M154.872 57.384H160.12V97H154.872V78.568H139.128V97H133.88V57.384H139.128V74.088H154.872V57.384ZM179.32 93.224C180.643 93.224 181.816 93.1813 182.84 93.096C183.907 93.0107 184.781 92.904 185.464 92.776V83.944C184.781 83.7307 183.949 83.56 182.968 83.432C182.029 83.304 181.027 83.24 179.96 83.24C178.979 83.24 178.019 83.3253 177.08 83.496C176.141 83.624 175.309 83.88 174.584 84.264C173.859 84.648 173.261 85.16 172.792 85.8C172.323 86.3973 172.088 87.1653 172.088 88.104C172.088 90.024 172.728 91.368 174.008 92.136C175.331 92.8613 177.101 93.224 179.32 93.224ZM178.808 66.6C181.027 66.6 182.883 66.8773 184.376 67.432C185.912 67.9867 187.149 68.7547 188.088 69.736C189.027 70.7173 189.688 71.912 190.072 73.32C190.456 74.728 190.648 76.264 190.648 77.928V96.488C189.411 96.7013 187.768 96.9573 185.72 97.256C183.715 97.5547 181.645 97.704 179.512 97.704C177.891 97.704 176.312 97.5547 174.776 97.256C173.24 97 171.875 96.5307 170.68 95.848C169.485 95.1227 168.525 94.1413 167.8 92.904C167.075 91.6667 166.712 90.088 166.712 88.168C166.712 86.4613 167.075 85.032 167.8 83.88C168.568 82.6853 169.528 81.7253 170.68 81C171.875 80.2747 173.219 79.7627 174.712 79.464C176.248 79.1227 177.784 78.952 179.32 78.952C181.411 78.952 183.459 79.1867 185.464 79.656V78.184C185.464 77.288 185.357 76.4347 185.144 75.624C184.973 74.7707 184.611 74.0027 184.056 73.32C183.544 72.6373 182.819 72.104 181.88 71.72C180.984 71.2933 179.811 71.08 178.36 71.08C176.525 71.08 174.925 71.208 173.56 71.464C172.195 71.72 171.149 71.976 170.424 72.232L169.784 67.88C170.509 67.5387 171.704 67.24 173.368 66.984C175.075 66.728 176.888 66.6 178.808 66.6ZM198.136 82.216C198.136 79.528 198.563 77.2027 199.416 75.24C200.269 73.2773 201.443 71.656 202.936 70.376C204.429 69.096 206.157 68.1573 208.12 67.56C210.125 66.92 212.259 66.6 214.52 66.6C215.971 66.6 217.4 66.7067 218.808 66.92C220.259 67.0907 221.795 67.432 223.416 67.944L222.2 72.488C220.792 71.976 219.491 71.656 218.296 71.528C217.144 71.3573 215.971 71.272 214.776 71.272C213.24 71.272 211.789 71.4853 210.424 71.912C209.059 72.296 207.864 72.936 206.84 73.832C205.859 74.6853 205.069 75.816 204.472 77.224C203.875 78.5893 203.576 80.2533 203.576 82.216C203.576 84.0933 203.853 85.7147 204.408 87.08C204.963 88.4027 205.731 89.512 206.712 90.408C207.736 91.2613 208.952 91.9013 210.36 92.328C211.768 92.7547 213.325 92.968 215.032 92.968C216.397 92.968 217.699 92.904 218.936 92.776C220.216 92.6053 221.603 92.264 223.096 91.752L223.864 96.168C222.371 96.7227 220.856 97.1067 219.32 97.32C217.784 97.576 216.12 97.704 214.328 97.704C211.939 97.704 209.741 97.384 207.736 96.744C205.773 96.0613 204.067 95.08 202.616 93.8C201.208 92.52 200.099 90.92 199.288 89C198.52 87.0373 198.136 84.776 198.136 82.216ZM242.232 80.68C243.384 81.5333 244.685 82.6213 246.136 83.944C247.587 85.224 249.016 86.6107 250.424 88.104C251.875 89.5973 253.24 91.1333 254.52 92.712C255.8 94.248 256.824 95.6773 257.592 97H251.32C250.509 95.6773 249.507 94.3333 248.312 92.968C247.117 91.56 245.837 90.216 244.472 88.936C243.149 87.656 241.805 86.4827 240.44 85.416C239.117 84.3493 237.923 83.4533 236.856 82.728V97H231.544V53.544L236.856 52.648V79.72C239.203 77.672 241.549 75.6453 243.896 73.64C246.243 71.592 248.355 69.48 250.232 67.304H256.44C254.605 69.48 252.387 71.72 249.784 74.024C247.224 76.328 244.707 78.5467 242.232 80.68ZM275.576 66.6C279.587 66.6 282.68 67.8587 284.856 70.376C287.032 72.8507 288.12 76.6267 288.12 81.704V83.56H266.872C267.085 86.632 268.088 88.9787 269.88 90.6C271.715 92.1787 274.275 92.968 277.56 92.968C279.437 92.968 281.037 92.8187 282.36 92.52C283.683 92.2213 284.685 91.9013 285.368 91.56L286.072 96.04C285.432 96.3813 284.28 96.744 282.616 97.128C280.952 97.512 279.075 97.704 276.984 97.704C274.424 97.704 272.163 97.32 270.2 96.552C268.28 95.7413 266.68 94.6533 265.4 93.288C264.12 91.9227 263.16 90.3013 262.52 88.424C261.88 86.504 261.56 84.4347 261.56 82.216C261.56 79.5707 261.965 77.2667 262.776 75.304C263.587 73.3413 264.653 71.72 265.976 70.44C267.299 69.16 268.792 68.2 270.456 67.56C272.12 66.92 273.827 66.6 275.576 66.6ZM282.744 79.272C282.744 76.7547 282.083 74.7707 280.76 73.32C279.437 71.8267 277.688 71.08 275.512 71.08C274.275 71.08 273.144 71.3147 272.12 71.784C271.139 72.2533 270.285 72.872 269.56 73.64C268.835 74.408 268.259 75.2827 267.832 76.264C267.405 77.2453 267.128 78.248 267 79.272H282.744ZM297.848 97V68.904C302.2 67.4107 306.595 66.664 311.032 66.664C312.397 66.664 313.699 66.728 314.936 66.856C316.173 66.9413 317.539 67.1547 319.032 67.496L318.072 72.168C316.707 71.784 315.491 71.5493 314.424 71.464C313.4 71.336 312.269 71.272 311.032 71.272C308.429 71.272 305.784 71.6347 303.096 72.36V97H297.848ZM357.624 68.136C360.184 67.1547 362.595 66.664 364.856 66.664C366.093 66.664 367.245 66.856 368.312 67.24C369.421 67.5813 370.36 68.136 371.128 68.904C372.963 67.4107 374.925 66.664 377.016 66.664C378.04 66.664 379 66.856 379.896 67.24C380.835 67.624 381.645 68.2 382.328 68.968C383.053 69.736 383.629 70.696 384.056 71.848C384.483 73 384.696 74.344 384.696 75.88V97H379.896V75.752C379.896 74.216 379.555 73.0427 378.872 72.232C378.189 71.4213 377.336 71.016 376.312 71.016C375.8 71.016 375.267 71.144 374.712 71.4C374.157 71.656 373.645 72.0613 373.176 72.616C373.432 73.5973 373.56 74.6853 373.56 75.88V85.544H368.76V75.816C368.76 74.3227 368.525 73.1493 368.056 72.296C367.587 71.4427 366.669 71.016 365.304 71.016C364.451 71.016 363.491 71.208 362.424 71.592V97H357.624V68.136ZM403.32 93.224C404.643 93.224 405.816 93.1813 406.84 93.096C407.907 93.0107 408.781 92.904 409.464 92.776V83.944C408.781 83.7307 407.949 83.56 406.968 83.432C406.029 83.304 405.027 83.24 403.96 83.24C402.979 83.24 402.019 83.3253 401.08 83.496C400.141 83.624 399.309 83.88 398.584 84.264C397.859 84.648 397.261 85.16 396.792 85.8C396.323 86.3973 396.088 87.1653 396.088 88.104C396.088 90.024 396.728 91.368 398.008 92.136C399.331 92.8613 401.101 93.224 403.32 93.224ZM402.808 66.6C405.027 66.6 406.883 66.8773 408.376 67.432C409.912 67.9867 411.149 68.7547 412.088 69.736C413.027 70.7173 413.688 71.912 414.072 73.32C414.456 74.728 414.648 76.264 414.648 77.928V96.488C413.411 96.7013 411.768 96.9573 409.72 97.256C407.715 97.5547 405.645 97.704 403.512 97.704C401.891 97.704 400.312 97.5547 398.776 97.256C397.24 97 395.875 96.5307 394.68 95.848C393.485 95.1227 392.525 94.1413 391.8 92.904C391.075 91.6667 390.712 90.088 390.712 88.168C390.712 86.4613 391.075 85.032 391.8 83.88C392.568 82.6853 393.528 81.7253 394.68 81C395.875 80.2747 397.219 79.7627 398.712 79.464C400.248 79.1227 401.784 78.952 403.32 78.952C405.411 78.952 407.459 79.1867 409.464 79.656V78.184C409.464 77.288 409.357 76.4347 409.144 75.624C408.973 74.7707 408.611 74.0027 408.056 73.32C407.544 72.6373 406.819 72.104 405.88 71.72C404.984 71.2933 403.811 71.08 402.36 71.08C400.525 71.08 398.925 71.208 397.56 71.464C396.195 71.72 395.149 71.976 394.424 72.232L393.784 67.88C394.509 67.5387 395.704 67.24 397.368 66.984C399.075 66.728 400.888 66.6 402.808 66.6ZM432.376 62.696C431.267 62.696 430.307 62.312 429.496 61.544C428.685 60.776 428.28 59.7307 428.28 58.408C428.28 57.0853 428.685 56.04 429.496 55.272C430.307 54.504 431.267 54.12 432.376 54.12C433.528 54.12 434.488 54.504 435.256 55.272C436.067 56.04 436.472 57.0853 436.472 58.408C436.472 59.7307 436.067 60.776 435.256 61.544C434.488 62.312 433.528 62.696 432.376 62.696ZM431.032 71.72H422.456V67.304H436.28V85.544C436.28 88.488 436.685 90.472 437.496 91.496C438.307 92.4773 439.523 92.968 441.144 92.968C442.381 92.968 443.512 92.8187 444.536 92.52C445.603 92.2213 446.435 91.9013 447.032 91.56L447.8 96.04C447.544 96.168 447.181 96.3387 446.712 96.552C446.243 96.7227 445.688 96.8933 445.048 97.064C444.451 97.2347 443.768 97.384 443 97.512C442.275 97.64 441.507 97.704 440.696 97.704C438.819 97.704 437.261 97.448 436.024 96.936C434.787 96.424 433.784 95.656 433.016 94.632C432.291 93.608 431.779 92.3493 431.48 90.856C431.181 89.32 431.032 87.5493 431.032 85.544V71.72ZM472.632 97.704C470.755 97.704 469.197 97.448 467.96 96.936C466.723 96.424 465.741 95.656 465.016 94.632C464.291 93.608 463.779 92.3493 463.48 90.856C463.181 89.32 463.032 87.5493 463.032 85.544V57.448H454.456V52.968H468.28V85.544C468.28 87.0373 468.365 88.2533 468.536 89.192C468.749 90.1307 469.048 90.8987 469.432 91.496C469.859 92.0507 470.371 92.4347 470.968 92.648C471.565 92.8613 472.269 92.968 473.08 92.968C474.317 92.968 475.469 92.8187 476.536 92.52C477.603 92.2213 478.435 91.9013 479.032 91.56L479.8 96.04C479.544 96.168 479.181 96.3387 478.712 96.552C478.243 96.7227 477.688 96.8933 477.048 97.064C476.408 97.2347 475.704 97.384 474.936 97.512C474.211 97.64 473.443 97.704 472.632 97.704Z" fill="black"/>
<path d="M32 68.8125H105.5" stroke="#4A6894" stroke-width="5"/>
<path d="M47.3126 29V55.0312M47.3126 81.0625V55.0312M47.3126 55.0312H90.1876M90.1876 29V55.0312M90.1876 81.0625V55.0312" stroke="#515151" stroke-width="5"/>
<path d="M32 117.812V68.8125L68.75 96.375L105.5 68.8125V117.812H32Z" fill="white" stroke="#4A6894" stroke-width="5" stroke-linejoin="round"/>
</svg>
